<?xml version="1.0" encoding="iso-8859-1"?>
<!-- Generator: Adobe Illustrator 19.0.0, SVG Export Plug-In . SVG Version: 6.00 Build 0)  -->
<svg version="1.1" id="Layer_1" xmlns="http://www.w3.org/2000/svg" xmlns:xlink="http://www.w3.org/1999/xlink" x="0px" y="0px"
	 viewBox="0 0 512.003 512.003" style="enable-background:new 0 0 512.003 512.003;" xml:space="preserve">
<path style="fill:#D6E0E0;" d="M195.047,503.946h232.54c8.234,0,14.907-6.675,14.907-14.906V65.945
	c0-8.232-6.673-14.906-14.907-14.906H287.989H84.415H69.508v14.906v213.562V489.04c0,8.231,6.673,14.906,14.907,14.906h83.678"/>
<path style="fill:#E2453D;" d="M341.86,175.602v-54.551c0-9.77-7.921-17.69-17.69-17.69c-9.771,0-17.69,7.92-17.69,17.69v54.551
	c-8.096,1.496-14.232,8.579-14.232,17.108v129.385c0,9.614,7.797,17.411,17.41,17.411h29.019c9.616,0,17.413-7.797,17.413-17.411
	V192.709C356.092,184.181,349.953,177.097,341.86,175.602z"/>
<path style="fill:#7C868E;" d="M324.17,103.362c-9.771,0-17.69,7.92-17.69,17.69v15.329h35.378v-15.329
	C341.86,111.282,333.939,103.362,324.17,103.362z"/>
<path style="fill:#E2453D;" d="M191.751,209.209v47.464c0,18.694,15.155,33.846,33.847,33.846s33.845-15.151,33.845-33.846v-47.464
	L191.751,209.209L191.751,209.209z"/>
<rect x="191.75" y="209.209" style="fill:#D6E0E0;" width="67.685" height="32.936"/>
<g>
	<rect x="292.252" y="211.045" style="fill:#F59D40;" width="63.841" height="85.715"/>
	<path style="fill:#F59D40;" d="M119.072,51.038H84.415H69.508v14.906v213.562V489.04c0,8.231,6.673,14.906,14.907,14.906h34.657
		V51.038z"/>
</g>
<g style="opacity:0.2;">
	<path style="fill:#020202;" d="M94.291,489.04V279.507V65.945V51.038h-9.875H69.508v14.906v213.562V489.04
		c0,8.231,6.673,14.906,14.907,14.906h24.781C100.963,503.946,94.291,497.271,94.291,489.04z"/>
</g>
<polygon style="fill:#7C868E;" points="69.508,51.038 406.069,8.055 406.069,51.038 "/>
<g>
	<path style="fill:#020202;" d="M427.588,42.984h-13.465V8.055c0-2.313-0.995-4.516-2.732-6.045
		c-1.735-1.529-4.042-2.24-6.342-1.945L68.488,43.05c-0.09,0.012-0.176,0.033-0.265,0.047c-0.148,0.024-0.295,0.046-0.44,0.078
		c-0.112,0.025-0.219,0.056-0.329,0.085c-0.143,0.038-0.286,0.074-0.425,0.119c-0.116,0.038-0.229,0.083-0.341,0.125
		c-0.126,0.047-0.253,0.092-0.377,0.145c-0.127,0.055-0.249,0.118-0.373,0.179c-0.104,0.052-0.21,0.1-0.311,0.156
		c-0.136,0.075-0.267,0.159-0.398,0.243c-0.083,0.053-0.169,0.101-0.249,0.156c-0.145,0.099-0.282,0.206-0.42,0.315
		c-0.061,0.048-0.127,0.092-0.187,0.142c-0.155,0.129-0.302,0.266-0.446,0.405c-0.038,0.037-0.079,0.07-0.117,0.107
		c-0.179,0.179-0.35,0.367-0.511,0.563c-0.033,0.04-0.061,0.085-0.095,0.126c-0.125,0.157-0.246,0.314-0.359,0.48
		c-0.062,0.091-0.116,0.189-0.175,0.283c-0.075,0.12-0.152,0.239-0.221,0.364c-0.057,0.103-0.105,0.212-0.158,0.318
		c-0.06,0.122-0.123,0.244-0.178,0.369c-0.045,0.105-0.083,0.214-0.123,0.322c-0.052,0.134-0.104,0.266-0.148,0.404
		c-0.033,0.104-0.059,0.212-0.089,0.318c-0.041,0.145-0.081,0.291-0.113,0.439c-0.023,0.103-0.038,0.208-0.056,0.312
		c-0.027,0.156-0.054,0.312-0.072,0.471c-0.012,0.104-0.018,0.209-0.026,0.315c-0.012,0.161-0.023,0.322-0.025,0.484
		c-0.001,0.041-0.006,0.081-0.006,0.121v438.002c0,12.66,10.3,22.96,22.961,22.96h34.657h49.021c4.449,0,8.054-3.605,8.054-8.054
		c0-4.449-3.605-8.054-8.054-8.054h-40.967V59.092h278.943h21.519c3.779,0,6.853,3.073,6.853,6.852V489.04
		c0,3.779-3.074,6.852-6.853,6.852h-232.54c-4.449,0-8.054,3.605-8.054,8.054c0,4.449,3.605,8.054,8.054,8.054h232.54
		c12.661,0,22.961-10.3,22.961-22.96V65.945C450.549,53.285,440.249,42.984,427.588,42.984z M111.018,495.892H84.415
		c-3.778,0-6.853-3.073-6.853-6.852V59.092h33.456V495.892z M196.145,42.984l201.87-25.782v25.782H196.145z"/>
	<path style="fill:#020202;" d="M259.441,201.155h-67.691c-4.449,0-8.054,3.605-8.054,8.054v32.936v14.528
		c0,20.349,14.584,37.348,33.847,41.115v33.663h-13.769c-4.449,0-8.054,3.605-8.054,8.054c0,4.449,3.605,8.054,8.054,8.054h43.644
		c4.449,0,8.054-3.605,8.054-8.054c0-4.449-3.605-8.054-8.054-8.054h-13.767v-33.663c19.262-3.767,33.845-20.766,33.845-41.115
		v-14.528v-32.936C267.495,204.76,263.89,201.155,259.441,201.155z M199.805,217.263h51.583v16.828h-51.583V217.263z
		 M225.597,282.465c-14.222,0-25.793-11.57-25.793-25.792v-6.474h51.583v6.474C251.387,270.895,239.819,282.465,225.597,282.465z"/>
	<path style="fill:#020202;" d="M349.914,121.051c0-14.195-11.548-25.744-25.744-25.744s-25.744,11.548-25.744,25.744v15.329v33.479
		c-8.535,4.188-14.232,12.951-14.232,22.85v18.341v85.712v25.331c0,14.042,11.424,25.465,25.464,25.465h29.019
		c14.042,0,25.467-11.424,25.467-25.465v-25.331V211.05v-18.341c0-9.899-5.697-18.66-14.232-22.85V136.38v-15.329H349.914z
		 M348.038,202.997h-47.734v-10.288c0-4.505,3.213-8.37,7.641-9.188c3.82-0.704,6.591-4.036,6.591-7.92v-31.167h19.27v31.167
		c0,3.883,2.772,7.214,6.591,7.92c4.427,0.818,7.64,4.682,7.64,9.188V202.997z M348.038,288.709h-47.734v-69.604h47.734V288.709z
		 M314.536,121.051c0-5.312,4.322-9.636,9.636-9.636c5.312,0,9.636,4.322,9.636,9.636v7.275h-19.27v-7.275H314.536z
		 M338.679,331.451H309.66c-5.16,0-9.357-4.198-9.357-9.358v-17.277h47.734v17.277C348.038,327.254,343.84,331.451,338.679,331.451z
		"/>
	<path style="fill:#020202;" d="M230.221,383.844c0,4.449,3.605,8.054,8.054,8.054h75.474c4.449,0,8.054-3.605,8.054-8.054
		s-3.605-8.054-8.054-8.054h-75.474C233.827,375.79,230.221,379.395,230.221,383.844z"/>
	<path style="fill:#020202;" d="M346.398,410.176H205.626c-4.448,0-8.054,3.605-8.054,8.054c0,4.449,3.606,8.054,8.054,8.054
		h140.772c4.449,0,8.054-3.605,8.054-8.054C354.452,413.781,350.846,410.176,346.398,410.176z"/>
	<path style="fill:#020202;" d="M346.398,444.562H205.626c-4.448,0-8.054,3.605-8.054,8.054s3.606,8.054,8.054,8.054h140.772
		c4.449,0,8.054-3.605,8.054-8.054S350.846,444.562,346.398,444.562z"/>
</g>
<g>
</g>
<g>
</g>
<g>
</g>
<g>
</g>
<g>
</g>
<g>
</g>
<g>
</g>
<g>
</g>
<g>
</g>
<g>
</g>
<g>
</g>
<g>
</g>
<g>
</g>
<g>
</g>
<g>
</g>
</svg>
